<svg width="398" height="420" viewBox="0 0 398 420" fill="none" xmlns="http://www.w3.org/2000/svg">
<path d="M116.001 125.366L197.454 188.927L278.521 131.26L218.205 210.376L279.038 293.885L197.585 230.324L116.518 287.991L176.834 208.875L116.001 125.366Z" fill="white"/>
<path d="M199 0L224.329 183.271L398 210L224.329 236.729L199 420L173.671 236.729L0 210L173.671 183.271L199 0Z" fill="white"/>
<path d="M244 203C244 203 216.75 258.5 211.71 266.775C206.669 275.049 203.669 276 198.71 276C193.75 276 189.75 273 185.71 266.775C181.669 260.549 153 203 153 203H244Z" fill="#E73F01" stroke="#E73F01"/>
<circle cx="199" cy="174" r="50" fill="white"/>
<ellipse cx="197.5" cy="172" rx="18.5" ry="18" fill="#E73F01"/>
<path d="M198.5 128C222.423 128 242 147.598 242 172C242 196.402 222.423 216 198.5 216C174.577 216 155 196.402 155 172C155 147.598 174.577 128 198.5 128Z" stroke="#E73F01" stroke-width="24"/>
<path d="M154.818 230.702H137.318C133.318 230.368 124.818 232.102 122.818 241.702L114.348 291.202M247.318 230.702H250.09C257.865 230.702 266.895 230.192 270.69 236.979C271.594 238.597 272.303 240.243 272.767 241.555C272.802 241.654 272.828 241.754 272.846 241.857L279.727 280.702M279.727 280.702C269.442 280.54 245.47 278.353 229.432 270.975C228.506 270.549 227.399 270.849 226.846 271.705L200.407 312.565C200.348 312.656 200.295 312.753 200.256 312.854C198.091 318.523 212.198 327.009 286.104 316.702M279.727 280.702L286.104 316.702M286.104 316.702L288.318 329.202C295.518 352.002 280.985 356.035 272.818 355.202H218.818M218.818 355.202H137.318C105.406 355.202 104.405 347.499 106.818 335.202L114.348 291.202M218.818 355.202L188.936 306.892C188.858 306.765 188.796 306.635 188.745 306.495C186.762 301.124 177.895 291.274 157.463 293.188C157.368 293.197 157.271 293.199 157.176 293.195L135.833 292.202M114.348 291.202L135.833 292.202M135.833 292.202L166.818 265.202" stroke="#E73F01" stroke-width="13"/>
<path d="M247.367 224.184L256.623 237.175L238.575 237.493L247.367 224.184Z" fill="#E73F01"/>
<path d="M163.764 276.749L162.373 260.315L175.984 265.673L163.764 276.749Z" fill="#E73F01"/>
<path d="M154.905 224.499L160.967 237.249H148.843L154.905 224.499Z" fill="#E73F01"/>
</svg>
